Coordinates
version=1
nRows=6
nColumns=36
inDegrees=yes

Units are S.I. units (second, meters, Newtons, ...)
If the header above contains a line with 'inDegrees', this indicates whether rotational values are in degrees (yes) or radians (no).

endheader
time	pelvis_tilt	pelvis_list	pelvis_rotation	pelvis_tx	pelvis_ty	pelvis_tz	hip_flexion_r	hip_adduction_r	hip_rotation_r	knee_angle_r	knee_angle_r_beta	ankle_angle_r	subtalar_angle_r	mtp_angle_r	hip_flexion_l	hip_adduction_l	hip_rotation_l	knee_angle_l	knee_angle_l_beta	ankle_angle_l	subtalar_angle_l	mtp_angle_l	lumbar_extension	lumbar_bending	lumbar_rotation	arm_flex_r	arm_add_r	arm_rot_r	elbow_flex_r	pro_sup_r	arm_flex_l	arm_add_l	arm_rot_l	elbow_flex_l	pro_sup_l
      0.00000000	    -13.36393197	     -0.95176856	     -6.33462857	      0.90597452	      1.15204830	      0.09191731	     25.95592811	     -3.07221460	    -10.33057733	     19.77205035	      0.34508738	     -9.65982177	     -9.51503171	     -5.89768044	     25.18641226	     -9.56577715	     -6.68535799	     21.61047556	      0.37717395	     -3.84536810	     -4.93416848	     -5.89768044	     13.11178027	      0.91532669	     -0.30060907	    -15.15082368	     -9.41580402	     11.80503456	     21.94166340	     67.39896788	    -14.63245843	    -11.94108920	      3.52255587	     23.49946411	     66.71827415
      0.01666670	    -12.66755116	     -1.22458391	     -6.12060385	      0.90538817	      1.11751956	      0.09268837	     26.38920854	     -2.72273213	     -9.24428562	     20.35340714	      0.35523397	    -11.22460540	     -9.58389878	     -5.93046311	     25.86070693	     -9.90881799	     -4.25019713	     22.63363169	      0.39503139	     -5.37474831	     -4.90257146	     -5.93046311	     12.92071346	      0.94819486	      0.85367374	    -12.67889546	     -7.80339275	     10.70449785	     17.57077869	     67.36566730	    -12.46600691	    -10.90328706	      1.64433161	     21.33934650	     66.55284933
      0.03333330	    -13.78011319	     -1.63259791	     -6.59564905	      0.90958848	      1.08023025	      0.09622347	     28.37627986	     -1.15158107	     -8.34077583	     21.54968132	      0.37611289	    -13.19490001	     -9.93562719	     -6.55839735	     27.93197379	    -11.11577703	     -2.53004056	     23.11423197	      0.40341945	     -8.03547619	     -5.71890738	     -6.55839735	     13.73472971	      1.12213687	      0.41253900	    -10.26703788	     -7.46430912	      8.56999023	     16.72046949	     71.39609360	    -12.56578977	     -9.90635499	     -4.91378097	     21.79920184	     71.55460796
      0.05000000	    -13.57291899	     -2.11585686	     -6.02620818	      0.91131292	      1.04120057	      0.09281005	     28.74517672	     -0.48168202	     -7.80646225	     22.22486928	      0.38789714	    -14.67593730	     -9.51071085	     -6.61109279	     29.11532257	    -11.56877975	     -0.57948282	     24.07993458	      0.42027414	     -9.38522555	     -5.98288466	     -6.61109279	     12.76411858	      1.12128024	      0.24208612	     -8.14870363	     -7.29571306	      8.15765442	     17.13356288	     71.17557202	    -10.62987750	     -9.76218960	     -4.74136558	     21.66175694	     71.40236184
      0.06666670	    -13.58891522	     -2.59399055	     -5.49994666	      0.90836207	      0.98973568	      0.08772117	     30.29528603	     -0.08916343	     -7.18615024	     24.33191125	      0.42467196	    -11.14106940	    -10.10151245	     -6.70395746	     31.36437526	    -11.84007622	      1.74015002	     26.68154116	      0.46568074	     -8.39211636	     -7.28396112	     -6.70395746	     10.63164705	      1.36870656	     -0.23297807	     -5.00456965	     -7.45968660	      7.52366008	     18.44330641	     70.88904839	     -7.00172391	     -9.43234772	     -4.11570489	     21.77353490	     71.12369843
      0.08333330	    -13.16659249	     -2.83347632	     -4.95639656	      0.90917702	      0.94217411	      0.07989126	     32.10482500	     -0.28938728	     -7.07245129	     29.78969584	      0.51992828	     -0.69739217	    -12.16306963	     -6.92347967	     34.23702396	    -11.21676310	      4.61874641	     33.19130505	      0.57929756	     -0.29595808	     -8.91377013	     -6.92347967	      7.69187185	      1.45564913	     -0.09515848	     -1.72095429	     -7.79597776	      5.43062376	     20.81249896	     72.36117206	     -1.85661882	     -9.52437853	      0.00265698	     21.28527676	     71.80895447
